<svg width="50" height="50" viewBox="0 0 50 50" fill="none" xmlns="http://www.w3.org/2000/svg">
<circle opacity="0.2" cx="25" cy="25" r="25" fill="#69C85A"/>
<path d="M16 14V18M18 16H14M17 32V36M19 34H15M22.5182 23.8446L19.8943 24.5156C19.3928 24.6438 19.3928 25.3562 19.8943 25.4844L22.5182 26.1554C24.6425 26.6987 26.3013 28.3575 26.8446 30.4818L27.5156 33.1057C27.6438 33.6072 28.3562 33.6072 28.4844 33.1057L29.1554 30.4818C29.6987 28.3575 31.3575 26.6987 33.4818 26.1554L36.1057 25.4844C36.6072 25.3562 36.6072 24.6438 36.1057 24.5156L33.4818 23.8446C31.3575 23.3013 29.6987 21.6425 29.1554 19.5182L28.4844 16.8943C28.3562 16.3928 27.6438 16.3928 27.5156 16.8943L26.8446 19.5182C26.3013 21.6425 24.6425 23.3013 22.5182 23.8446Z" stroke="#69C85A" stroke-width="2" stroke-linecap="round" stroke-linejoin="round"/>
</svg>
